<svg width="80" height="72" viewBox="0 0 80 72" fill="none" xmlns="http://www.w3.org/2000/svg">
<path d="M66.9677 69.8101L6.28115 63.0842C3.36335 62.7609 1.26029 60.1334 1.58358 57.2156L7.16146 6.88762C7.48492 3.96982 10.1124 1.8666 13.03 2.19005L73.7166 8.91602C76.6344 9.23947 78.7376 11.8669 78.4142 14.7846L72.8363 65.1126C72.513 68.0304 69.8855 70.1336 66.9677 69.8101Z" fill="url(#paint0_linear)"/>
<path d="M78.4155 14.7847L76.2163 34.6332L71.3281 8.65137L73.7189 8.91615C76.6357 9.23897 78.7385 11.8661 78.4155 14.7847Z" fill="url(#paint1_linear)"/>
<path d="M75.6664 60.4613L15.6607 71.7498C12.7757 72.2925 9.99691 70.3937 9.45416 67.5087L0.0925913 17.7454C-0.450154 14.8603 1.44867 12.0815 4.33369 11.5388L64.3393 0.250306C67.2244 -0.292439 70.0032 1.60638 70.5459 4.49141L79.9075 54.2547C80.4502 57.1399 78.5514 59.9187 75.6664 60.4613Z" fill="url(#paint2_linear)"/>
<path d="M71.8281 11.3015V61.1837L75.6675 60.4614C78.5525 59.9186 80.4513 57.1398 79.9086 54.2548L71.8281 11.3015Z" fill="url(#paint3_linear)"/>
<path d="M9.16797 65.9902L9.45362 67.5087C9.99636 70.3937 12.7752 72.2925 15.6602 71.7498L46.2759 65.9902H9.16797Z" fill="url(#paint4_linear)"/>
<path d="M66.5102 66.3008H5.45217C2.51648 66.3008 0.136719 63.9211 0.136719 60.9854V10.3491C0.136719 7.41346 2.51648 5.03369 5.45217 5.03369H66.5102C69.4459 5.03369 71.8257 7.41346 71.8257 10.3491V60.9854C71.8257 63.9211 69.4459 66.3008 66.5102 66.3008Z" fill="url(#paint5_linear)"/>
<path d="M61.5323 61.3063H10.4293C7.97231 61.3063 5.98047 59.3144 5.98047 56.8575V14.4771C5.98047 12.0202 7.97231 10.0283 10.4293 10.0283H61.5323C63.9893 10.0283 65.9811 12.0202 65.9811 14.4771V56.8575C65.9811 59.3144 63.9893 61.3063 61.5323 61.3063Z" fill="url(#paint6_linear)"/>
<path d="M39.5392 61.3062H10.4307C7.97325 61.3062 5.98047 59.315 5.98047 56.8578V49.9103L13.3659 40.9334C15.8032 37.9682 20.34 37.9682 22.7791 40.9334L27.3775 46.5239L39.5392 61.3062Z" fill="url(#paint7_linear)"/>
<path d="M65.9816 45.6865V56.8578C65.9816 59.3152 63.9888 61.3063 61.5314 61.3063H15.2148L27.3767 46.524L42.3173 28.362C44.7546 25.3985 49.2931 25.3985 51.7304 28.362L65.9816 45.6865Z" fill="url(#paint8_linear)"/>
<path d="M21.5237 27.0809C25.008 27.0809 27.8326 24.2563 27.8326 20.772C27.8326 17.2877 25.008 14.4631 21.5237 14.4631C18.0394 14.4631 15.2148 17.2877 15.2148 20.772C15.2148 24.2563 18.0394 27.0809 21.5237 27.0809Z" fill="url(#paint9_linear)"/>
<defs>
<linearGradient id="paint0_linear" x1="20.4402" y1="11.5565" x2="65.5579" y2="67.9026" gradientUnits="userSpaceOnUse">
<stop stop-color="#FFA936"/>
<stop offset="0.4112" stop-color="#FF8548"/>
<stop offset="0.7781" stop-color="#FF6C54"/>
<stop offset="1" stop-color="#FF6359"/>
</linearGradient>
<linearGradient id="paint1_linear" x1="76.9394" y1="20.9436" x2="73.1658" y2="21.7761" gradientUnits="userSpaceOnUse">
<stop stop-color="#F82814" stop-opacity="0"/>
<stop offset="1" stop-color="#C0272D"/>
</linearGradient>
<linearGradient id="paint2_linear" x1="14.1545" y1="18.3409" x2="73.767" y2="59.0694" gradientUnits="userSpaceOnUse">
<stop stop-color="#CDEC7A"/>
<stop offset="0.2157" stop-color="#B0E995"/>
<stop offset="0.5613" stop-color="#87E4BB"/>
<stop offset="0.8347" stop-color="#6EE1D2"/>
<stop offset="1" stop-color="#65E0DB"/>
</linearGradient>
<linearGradient id="paint3_linear" x1="77.1279" y1="36.2427" x2="70.6895" y2="36.2427" gradientUnits="userSpaceOnUse">
<stop stop-color="#CDEC7A" stop-opacity="0"/>
<stop offset="0.2354" stop-color="#9AD57D" stop-opacity="0.235"/>
<stop offset="0.6035" stop-color="#51B482" stop-opacity="0.604"/>
<stop offset="0.8679" stop-color="#239F85" stop-opacity="0.868"/>
<stop offset="1" stop-color="#119786"/>
</linearGradient>
<linearGradient id="paint4_linear" x1="27.7219" y1="69.242" x2="27.7219" y2="65.4277" gradientUnits="userSpaceOnUse">
<stop stop-color="#CDEC7A" stop-opacity="0"/>
<stop offset="0.2354" stop-color="#9AD57D" stop-opacity="0.235"/>
<stop offset="0.6035" stop-color="#51B482" stop-opacity="0.604"/>
<stop offset="0.8679" stop-color="#239F85" stop-opacity="0.868"/>
<stop offset="1" stop-color="#119786"/>
</linearGradient>
<linearGradient id="paint5_linear" x1="13.8442" y1="13.5302" x2="64.8823" y2="64.5683" gradientUnits="userSpaceOnUse">
<stop stop-color="#F8F6FB"/>
<stop offset="1" stop-color="#EFDCFB"/>
</linearGradient>
<linearGradient id="paint6_linear" x1="17.6875" y1="11.8677" x2="67.4669" y2="76.631" gradientUnits="userSpaceOnUse">
<stop stop-color="#18CEFB"/>
<stop offset="0.2969" stop-color="#2BB9F9"/>
<stop offset="0.7345" stop-color="#42A0F7"/>
<stop offset="1" stop-color="#4A97F6"/>
</linearGradient>
<linearGradient id="paint7_linear" x1="11.8559" y1="45.6519" x2="33.6642" y2="74.0247" gradientUnits="userSpaceOnUse">
<stop stop-color="#CDEC7A"/>
<stop offset="0.2154" stop-color="#B0E995" stop-opacity="0.784"/>
<stop offset="0.5604" stop-color="#87E4BB" stop-opacity="0.439"/>
<stop offset="0.8334" stop-color="#6EE1D2" stop-opacity="0.165"/>
<stop offset="0.9985" stop-color="#65E0DB" stop-opacity="0"/>
</linearGradient>
<linearGradient id="paint8_linear" x1="31.1861" y1="41.2511" x2="57.4884" y2="75.4704" gradientUnits="userSpaceOnUse">
<stop stop-color="#CDEC7A"/>
<stop offset="0.2157" stop-color="#B0E995"/>
<stop offset="0.5613" stop-color="#87E4BB"/>
<stop offset="0.8347" stop-color="#6EE1D2"/>
<stop offset="1" stop-color="#65E0DB"/>
</linearGradient>
<linearGradient id="paint9_linear" x1="18.3891" y1="16.694" x2="26.9187" y2="27.7911" gradientUnits="userSpaceOnUse">
<stop stop-color="#FFD945"/>
<stop offset="0.3043" stop-color="#FFCD3E"/>
<stop offset="0.8558" stop-color="#FFAD2B"/>
<stop offset="1" stop-color="#FFA325"/>
</linearGradient>
</defs>
</svg>
