<svg width="476" height="334" viewBox="0 0 476 334" fill="none" xmlns="http://www.w3.org/2000/svg">
<g clip-path="url(#clip0)">
<path d="M95.832 25.401H8.125V178.833H95.832V25.401Z" fill="#FAFAFA"/>
<path d="M35.4142 180.332C35.4142 180.332 25.7917 111.307 20.7438 103.734C20.7438 103.734 49.4536 82.1983 50.3212 23.7444H6.7832V180.41H35.4142V180.332Z" fill="#F5F5F5"/>
<path d="M68.4617 180.016C68.4617 180.016 78.0843 110.991 83.1322 103.418C83.1322 103.418 54.4223 81.8828 53.5547 23.4288H97.1716V180.095H68.4617V180.016Z" fill="#F5F5F5"/>
<path d="M98.1183 19.5635H94.0169H0V22.0089V25.401V178.833V181.357V183.881H102.141V181.357V178.833V19.5635H98.1183ZM25.7127 104.996V144.044H8.12394V104.996H25.7127ZM8.12394 102.156V61.6882H25.7127V102.156H8.12394ZM52.6084 102.156V61.6882H74.6141V102.156H52.6084ZM74.6141 104.996V144.044H52.6084V104.996H74.6141ZM26.5014 102.156V61.6882H49.6901V102.156H26.5014ZM49.769 104.996V144.044H26.5014V104.996H49.769ZM26.5014 60.9782V25.401H49.6901V60.9782H26.5014ZM49.769 144.754V178.833H26.5014V144.754H49.769ZM52.6084 144.754H74.6141V178.833H52.6084V144.754ZM52.6084 60.9782V25.401H74.6141V60.9782H52.6084ZM75.4028 104.996H94.0169V144.044H75.4028V104.996ZM75.4028 102.156V61.6882H94.0169V102.156H75.4028ZM94.0169 60.9782H75.4028V25.401H94.0169V60.9782ZM25.7127 25.401V60.9782H8.12394V25.401H25.7127ZM8.12394 144.754H25.7127V178.833H8.12394V144.754ZM75.4028 178.833V144.754H94.0169V178.833H75.4028Z" fill="#EBEBEB"/>
<path d="M394.286 55.8507H127.537V234.526H394.286V55.8507Z" fill="#F5F5F5"/>
<path d="M394.286 55.8507H127.537V73.6788H394.286V55.8507Z" fill="#EBEBEB"/>
<path d="M136.923 66.7369C138.099 66.7369 139.052 65.8539 139.052 64.7647C139.052 63.6756 138.099 62.7926 136.923 62.7926C135.746 62.7926 134.793 63.6756 134.793 64.7647C134.793 65.8539 135.746 66.7369 136.923 66.7369Z" fill="#FAFAFA"/>
<path d="M143.942 66.7369C145.118 66.7369 146.072 65.8539 146.072 64.7647C146.072 63.6756 145.118 62.7926 143.942 62.7926C142.766 62.7926 141.812 63.6756 141.812 64.7647C141.812 65.8539 142.766 66.7369 143.942 66.7369Z" fill="#FAFAFA"/>
<path d="M150.883 66.7369C152.06 66.7369 153.013 65.8539 153.013 64.7647C153.013 63.6756 152.06 62.7926 150.883 62.7926C149.707 62.7926 148.754 63.6756 148.754 64.7647C148.754 65.8539 149.707 66.7369 150.883 66.7369Z" fill="#FAFAFA"/>
<path d="M476.001 91.1124H422.367V161.005L476.001 162.425V91.1124Z" fill="#EBEBEB"/>
<path d="M472.452 93.6367H425.602V157.06L472.452 158.638V93.6367Z" fill="#FAFAFA"/>
<path d="M464.249 105.154L433.094 103.971V148.304H464.249V105.154Z" fill="#EBEBEB"/>
<path d="M433.094 148.304L464.249 125.506L433.094 103.971V148.304Z" fill="#F5F5F5"/>
<path d="M470.086 41.9669L440.271 41.0203V79.9107L470.086 80.6995V41.9669Z" fill="#EBEBEB"/>
<path d="M468.113 43.6235L442.006 42.4402V77.7019L468.113 78.5696V43.6235Z" fill="#FAFAFA"/>
<path d="M463.539 48.8299L446.266 48.1989V72.8111H463.539V48.8299Z" fill="#EBEBEB"/>
<path d="M446.266 72.8111L463.539 60.1894L446.266 48.1989V72.8111Z" fill="#F5F5F5"/>
<path d="M264.857 8.99292L262.018 35.4984H298.615L301.612 8.99292H264.857Z" fill="#EBEBEB"/>
<path d="M266.356 10.7284L263.596 33.9207H296.644L299.325 10.7284H266.356Z" fill="#FAFAFA"/>
<path d="M271.956 14.8304L270.221 30.2131H291.043L292.147 14.8304H271.956Z" fill="#EBEBEB"/>
<path d="M312.654 0L308.789 35.4984H357.848L361.871 0H312.654Z" fill="#EBEBEB"/>
<path d="M314.625 2.36658L310.918 33.4474H355.166L358.794 2.36658H314.625Z" fill="#FAFAFA"/>
<path d="M322.119 7.80969L319.832 28.3987H347.753L349.173 7.80969H322.119Z" fill="#EBEBEB"/>
<path d="M380.248 35.4983H237.408V39.6003H380.248V35.4983Z" fill="#EBEBEB"/>
<path d="M261.859 49.5399L255.549 39.6003H264.856V49.5399H261.859Z" fill="#EBEBEB"/>
<path d="M258.625 39.6003L264.146 49.5399H264.856V39.6003H258.625Z" fill="#E0E0E0"/>
<path d="M344.202 49.5399L337.971 39.6003H347.278V49.5399H344.202Z" fill="#EBEBEB"/>
<path d="M340.969 39.6003L346.49 49.5399H347.279V39.6003H340.969Z" fill="#E0E0E0"/>
<path d="M66.5685 278.465C79.7403 269.866 83.053 253.379 82.8953 238.47C82.8953 235.946 83.2108 233.342 82.1065 231.134C81.0023 228.925 78.2418 227.347 75.9544 228.373C74.0615 229.162 73.1939 231.291 72.0896 233.106C70.6699 235.393 68.5403 237.366 66.0953 238.549C64.4389 239.338 62.4671 239.811 60.8896 238.864C58.7601 237.602 58.6023 234.684 58.6812 232.159C58.8389 227.584 58.9967 222.93 59.0756 218.354C59.1544 215.909 59.2333 213.385 58.5234 211.018C57.8136 208.651 56.1572 206.443 53.791 205.733C51.4249 205.023 48.4277 206.285 47.8756 208.73C47.6389 209.756 47.7967 210.781 47.7178 211.807C47.6389 212.832 47.0868 213.937 46.1403 214.252C45.115 214.489 44.1685 213.779 43.4587 213.069C40.9347 210.545 39.2784 207.231 37.7009 203.997C36.1234 200.763 34.6249 197.45 32.3375 194.689C30.0502 191.928 26.8953 189.719 23.2671 189.403C19.7178 189.088 15.853 191.218 14.8277 194.689C13.8023 198.16 15.7742 201.709 17.9826 204.628C21.2164 208.888 25.0023 212.675 29.3404 215.83C30.1291 216.382 30.9178 217.013 31.2333 217.96C31.7065 219.616 30.1291 221.194 28.4727 221.746C26.5798 222.299 24.608 222.062 22.6361 222.22C20.6643 222.377 18.5347 223.166 17.746 224.981C16.6418 227.505 18.7713 230.187 20.822 231.923C24.9234 235.472 29.6558 238.312 34.7826 240.363C36.5967 241.073 38.4896 241.704 39.9882 243.045C41.408 244.386 42.2756 246.595 41.3291 248.331C40.3826 250.066 38.0953 250.539 36.1234 250.145C34.2305 249.751 32.4953 248.646 30.6812 247.936C27.2896 246.595 22.7939 246.674 20.5854 249.593C19.0868 251.486 18.9291 254.168 19.5601 256.456C20.2699 258.744 21.6896 260.795 23.1882 262.609C28.5516 269.156 35.4925 274.442 43.3798 277.36C51.1882 280.2 58.5234 281.147 66.5685 278.465Z" fill="#B3A7FF"/>
<path d="M18.4551 191.297C18.4551 191.297 18.534 191.376 18.6917 191.533C18.8494 191.691 19.0861 191.928 19.4016 192.243C20.0325 192.795 20.979 193.663 22.1621 194.846C24.5283 197.134 27.841 200.605 31.4692 205.259C33.2832 207.626 35.1762 210.229 37.0692 213.069C39.041 215.909 41.0917 218.985 43.1424 222.377C45.1931 225.691 47.2438 229.24 49.0579 233.106C50.0044 234.999 50.7931 237.05 51.5818 239.022C52.3706 241.073 53.2382 243.124 54.1058 245.175C57.4185 253.537 60.4156 261.583 62.4663 269.156C64.5171 276.65 65.7002 283.671 66.1734 289.509C66.6466 295.425 66.41 300.158 66.0945 303.471C65.9368 305.128 65.779 306.39 65.6213 307.258C65.5424 307.652 65.5424 307.968 65.4635 308.205C65.4635 308.441 65.3847 308.52 65.4635 308.52C65.4635 308.52 65.4635 308.441 65.5424 308.205C65.6213 307.968 65.6213 307.652 65.7002 307.258C65.8579 306.39 66.0945 305.128 66.2523 303.471C66.6466 300.158 66.8833 295.425 66.4889 289.509C66.0945 283.592 64.9114 276.65 62.9396 269.077C60.8889 261.504 57.9706 253.458 54.6579 245.017C53.7903 242.966 53.0016 240.837 52.134 238.864C51.3452 236.813 50.4776 234.841 49.5311 232.869C47.7171 229.004 45.6663 225.454 43.5368 222.141C41.4861 218.828 39.3565 215.751 37.4635 212.911C35.4917 210.071 33.5987 207.389 31.7847 205.102C28.1565 200.447 24.7649 197.055 22.3199 194.768C21.1368 193.663 20.1114 192.795 19.4804 192.243C19.1649 192.007 18.9283 191.77 18.6917 191.612C18.534 191.376 18.4551 191.297 18.4551 191.297Z" fill="#263238"/>
<path d="M49.3745 232.869C49.3745 232.869 49.5322 232.475 49.6111 231.844C49.7688 231.134 49.9266 230.187 50.1632 228.925C50.5576 226.479 51.0308 223.087 51.504 219.301C51.9773 215.514 52.5294 212.122 52.9238 209.756C53.1604 208.573 53.3181 207.547 53.4759 206.837C53.6336 206.127 53.6336 205.812 53.6336 205.733C53.6336 205.733 53.4759 206.127 53.3181 206.758C53.1604 207.389 52.9238 208.415 52.6083 209.598C52.0562 212.044 51.504 215.436 51.0308 219.143C50.5576 222.851 50.1632 226.164 49.8477 228.767C49.69 229.95 49.5322 230.897 49.4533 231.686C49.3745 232.475 49.2956 232.869 49.3745 232.869Z" fill="#263238"/>
<path d="M17.3516 226.164C17.3516 226.164 17.8248 226.243 18.6135 226.322C19.4023 226.401 20.6642 226.558 22.084 226.716C25.0023 227.111 29.0248 227.742 33.5206 228.688C37.9375 229.635 41.8811 230.66 44.7206 231.449C46.1403 231.844 47.3234 232.238 48.1121 232.475C48.9009 232.711 49.3741 232.869 49.3741 232.79C49.3741 232.79 48.9797 232.554 48.191 232.317C47.4023 232.001 46.298 231.607 44.8783 231.213C42.0389 230.345 38.0952 229.24 33.6783 228.294C29.2614 227.347 25.16 226.716 22.2417 226.401C20.7431 226.243 19.56 226.164 18.7713 226.085C17.8248 226.085 17.3516 226.085 17.3516 226.164Z" fill="#263238"/>
<path d="M62.4668 268.446C62.4668 268.446 62.5457 268.289 62.7034 268.052C62.8612 267.736 63.0189 267.342 63.2555 266.948C63.7288 265.922 64.4386 264.502 65.2274 262.688C66.8837 259.059 69.0133 254.01 71.2217 248.488C73.5091 242.888 75.5598 237.839 77.0584 234.21C77.8471 232.475 78.4781 230.976 78.9513 229.95C79.1879 229.477 79.3457 229.083 79.4246 228.767C79.5034 228.53 79.5823 228.373 79.5823 228.373C79.5823 228.373 79.5034 228.53 79.3457 228.767C79.1879 229.083 79.0302 229.477 78.7936 229.871C78.3203 230.897 77.6105 232.317 76.8217 234.131C75.1654 237.76 73.0358 242.809 70.8274 248.331C68.54 253.931 66.4893 258.98 64.9907 262.609C64.202 264.344 63.571 265.843 63.0978 266.869C62.8612 267.342 62.7034 267.736 62.6245 268.052C62.5457 268.289 62.4668 268.446 62.4668 268.446Z" fill="#263238"/>
<path d="M20.1113 253.853C20.1113 253.853 20.2691 253.932 20.5057 254.01C20.8212 254.089 21.2156 254.247 21.7677 254.484C22.8719 254.878 24.4494 255.43 26.3423 256.061C30.2071 257.403 35.4127 259.296 41.2494 261.426C47.086 263.556 52.3705 265.37 56.2353 266.632C58.1282 267.263 59.7057 267.736 60.8099 268.052C61.2832 268.21 61.7564 268.289 62.0719 268.446C62.3874 268.525 62.5451 268.525 62.5451 268.525C62.5451 268.525 62.3874 268.446 62.1508 268.368C61.8353 268.21 61.4409 268.131 60.8888 267.894C59.7846 267.5 58.2071 266.948 56.3141 266.317C52.4494 264.975 47.2437 263.082 41.4071 260.952C35.5705 258.822 30.286 257.008 26.4212 255.746C24.5282 255.115 22.9508 254.642 21.8465 254.326C21.3733 254.168 20.9001 254.089 20.5846 253.932C20.2691 253.853 20.1113 253.853 20.1113 253.853Z" fill="#263238"/>
<path d="M424.574 308.362C424.574 308.441 336.157 308.599 227.076 308.599C117.915 308.599 29.498 308.52 29.498 308.362C29.498 308.283 117.915 308.126 227.076 308.126C336.157 308.126 424.574 308.204 424.574 308.362Z" fill="#263238"/>
<path d="M351.776 70.9967H83.2121C78.5586 70.9967 74.8516 74.7832 74.8516 79.3585V269.077C74.8516 273.732 78.6375 277.439 83.2121 277.439H186.299C186.299 277.439 192.846 297.713 172.497 308.205H268.88C268.88 308.205 245.928 300.316 251.843 277.439H351.776C356.429 277.439 360.136 273.653 360.136 269.077V79.4374C360.136 74.7832 356.35 70.9967 351.776 70.9967Z" fill="#515B60"/>
<path d="M221.318 257.481C224.947 262.688 219.268 268.446 214.062 264.739C213.904 264.581 213.747 264.423 213.589 264.265C209.961 259.059 215.639 253.3 220.845 257.008C221.082 257.087 221.24 257.245 221.318 257.481Z" fill="#455A64"/>
<path d="M351.224 242.335H83.7649C82.3452 242.335 81.1621 241.152 81.1621 239.732V83.2239C81.1621 81.804 82.3452 80.6207 83.7649 80.6207H351.224C352.644 80.6207 353.827 81.804 353.827 83.2239V239.811C353.827 241.152 352.644 242.335 351.224 242.335Z" fill="#E0E0E0"/>
<path d="M353.748 92.4535H81.1621V242.335H353.748V92.4535Z" fill="#FAFAFA"/>
<path d="M101.353 89.0615C102.573 89.0615 103.561 88.0726 103.561 86.8527C103.561 85.6328 102.573 84.6439 101.353 84.6439C100.133 84.6439 99.1445 85.6328 99.1445 86.8527C99.1445 88.0726 100.133 89.0615 101.353 89.0615Z" fill="#9685FD"/>
<path d="M88.1811 89.0615C89.4008 89.0615 90.3896 88.0726 90.3896 86.8527C90.3896 85.6328 89.4008 84.6439 88.1811 84.6439C86.9614 84.6439 85.9727 85.6328 85.9727 86.8527C85.9727 88.0726 86.9614 89.0615 88.1811 89.0615Z" fill="#9685FD"/>
<path d="M94.4916 89.0615C95.7113 89.0615 96.7001 88.0726 96.7001 86.8527C96.7001 85.6328 95.7113 84.6439 94.4916 84.6439C93.272 84.6439 92.2832 85.6328 92.2832 86.8527C92.2832 88.0726 93.272 89.0615 94.4916 89.0615Z" fill="#9685FD"/>
<path d="M193.241 162.503C205.569 162.503 215.562 162.398 215.562 162.267C215.562 162.136 205.569 162.03 193.241 162.03C180.913 162.03 170.92 162.136 170.92 162.267C170.92 162.398 180.913 162.503 193.241 162.503Z" fill="#455A64"/>
<path d="M193.241 168.42C205.569 168.42 215.562 168.314 215.562 168.183C215.562 168.053 205.569 167.947 193.241 167.947C180.913 167.947 170.92 168.053 170.92 168.183C170.92 168.314 180.913 168.42 193.241 168.42Z" fill="#455A64"/>
<path d="M184.25 174.415C191.611 174.415 197.579 174.309 197.579 174.179C197.579 174.048 191.611 173.942 184.25 173.942C176.888 173.942 170.92 174.048 170.92 174.179C170.92 174.309 176.888 174.415 184.25 174.415Z" fill="#455A64"/>
<path d="M192.137 101.21H170.92V103.892H192.137V101.21Z" fill="#455A64"/>
<path d="M217.534 109.887H170.92V155.009H217.534V109.887Z" fill="#E0E0E0"/>
<path d="M174.549 151.144L187.405 127.952L197.974 142.782L204.363 134.894L213.907 151.144H174.549Z" fill="#9685FD"/>
<path d="M199.077 126.768C200.95 126.768 202.469 125.25 202.469 123.376C202.469 121.503 200.95 119.984 199.077 119.984C197.204 119.984 195.686 121.503 195.686 123.376C195.686 125.25 197.204 126.768 199.077 126.768Z" fill="#9685FD"/>
<path d="M213.905 151.223C213.905 151.223 213.905 151.144 213.905 151.065C213.905 150.907 213.905 150.75 213.905 150.513C213.905 150.04 213.905 149.33 213.905 148.462C213.905 146.648 213.905 144.123 213.826 140.81C213.826 134.184 213.747 124.875 213.747 113.595L213.905 113.752C202.468 113.752 188.981 113.752 174.547 113.752C174.468 113.831 174.941 113.358 174.784 113.516V113.595V113.674V113.831V114.147V114.778V116.04C174.784 116.908 174.784 117.776 174.784 118.564C174.784 120.221 174.784 121.957 174.784 123.613C174.784 126.926 174.784 130.161 174.784 133.316C174.784 139.627 174.784 145.622 174.784 151.065L174.626 150.907C186.378 150.986 196.158 150.986 203.099 150.986C206.57 150.986 209.251 150.986 211.144 151.065C212.091 151.065 212.801 151.065 213.274 151.065C213.51 151.065 213.668 151.065 213.826 151.065C213.826 151.223 213.905 151.223 213.905 151.223C213.905 151.223 213.826 151.223 213.747 151.223C213.589 151.223 213.432 151.223 213.195 151.223C212.722 151.223 212.012 151.223 211.065 151.223C209.172 151.223 206.491 151.223 203.099 151.302C196.158 151.302 186.299 151.381 174.468 151.381H174.31V151.223C174.31 145.701 174.31 139.785 174.31 133.474C174.31 130.318 174.31 127.084 174.31 123.771C174.31 122.114 174.31 120.458 174.31 118.722C174.31 117.854 174.31 117.066 174.31 116.198V114.936V114.305V113.989V113.831V113.752V113.674C174.074 113.831 174.547 113.358 174.547 113.437C188.981 113.437 202.547 113.437 213.905 113.437H214.062V113.595C213.984 124.875 213.984 134.341 213.984 140.968C213.984 144.202 213.984 146.805 213.905 148.62C213.905 149.487 213.905 150.119 213.905 150.592C213.905 150.828 213.905 150.986 213.905 151.065C213.905 151.223 213.905 151.223 213.905 151.223Z" fill="#455A64"/>
<path d="M250.03 162.503C262.358 162.503 272.351 162.398 272.351 162.267C272.351 162.136 262.358 162.03 250.03 162.03C237.702 162.03 227.709 162.136 227.709 162.267C227.709 162.398 237.702 162.503 250.03 162.503Z" fill="#455A64"/>
<path d="M250.03 168.42C262.358 168.42 272.351 168.314 272.351 168.183C272.351 168.053 262.358 167.947 250.03 167.947C237.702 167.947 227.709 168.053 227.709 168.183C227.709 168.314 237.702 168.42 250.03 168.42Z" fill="#455A64"/>
<path d="M241.117 174.415C248.478 174.415 254.446 174.309 254.446 174.179C254.446 174.048 248.478 173.942 241.117 173.942C233.755 173.942 227.787 174.048 227.787 174.179C227.787 174.309 233.755 174.415 241.117 174.415Z" fill="#455A64"/>
<path d="M248.926 101.21H227.709V103.892H248.926V101.21Z" fill="#455A64"/>
<path d="M274.323 109.887H227.709V155.009H274.323V109.887Z" fill="#E0E0E0"/>
<path d="M231.338 151.144L244.194 127.952L254.763 142.782L261.152 134.894L270.696 151.144H231.338Z" fill="#9685FD"/>
<path d="M255.946 126.768C257.819 126.768 259.338 125.25 259.338 123.376C259.338 121.503 257.819 119.984 255.946 119.984C254.073 119.984 252.555 121.503 252.555 123.376C252.555 125.25 254.073 126.768 255.946 126.768Z" fill="#9685FD"/>
<path d="M270.694 151.223C270.694 151.223 270.694 151.144 270.694 151.065C270.694 150.907 270.694 150.75 270.694 150.513C270.694 150.04 270.694 149.33 270.694 148.462C270.694 146.648 270.694 144.123 270.615 140.81C270.615 134.184 270.536 124.875 270.536 113.595L270.694 113.752C259.257 113.752 245.77 113.752 231.336 113.752C231.257 113.831 231.73 113.358 231.573 113.516V113.595V113.674V113.831V114.147V114.778V116.04C231.573 116.908 231.573 117.776 231.573 118.564C231.573 120.221 231.573 121.957 231.573 123.613C231.573 126.926 231.573 130.161 231.573 133.316C231.573 139.627 231.573 145.622 231.573 151.065L231.415 150.907C243.167 150.986 252.947 150.986 259.888 150.986C263.359 150.986 266.04 150.986 267.933 151.065C268.88 151.065 269.59 151.065 270.063 151.065C270.299 151.065 270.457 151.065 270.615 151.065C270.615 151.223 270.694 151.223 270.694 151.223C270.694 151.223 270.615 151.223 270.536 151.223C270.378 151.223 270.221 151.223 269.984 151.223C269.511 151.223 268.801 151.223 267.854 151.223C265.961 151.223 263.28 151.223 259.888 151.302C252.947 151.302 243.088 151.381 231.257 151.381H231.099V151.223C231.099 145.701 231.099 139.785 231.099 133.474C231.099 130.318 231.099 127.084 231.099 123.771C231.099 122.114 231.099 120.458 231.099 118.722C231.099 117.854 231.099 117.066 231.099 116.198V114.936V114.305V113.989V113.831V113.752V113.674C230.863 113.831 231.336 113.358 231.336 113.437C245.77 113.437 259.336 113.437 270.694 113.437H270.852V113.595C270.773 124.875 270.773 134.341 270.773 140.968C270.773 144.202 270.773 146.805 270.694 148.62C270.694 149.487 270.694 150.119 270.694 150.592C270.694 150.828 270.694 150.986 270.694 151.065C270.694 151.223 270.694 151.223 270.694 151.223Z" fill="#455A64"/>
<path d="M193.635 182.462H172.418V185.144H193.635V182.462Z" fill="#455A64"/>
<path d="M219.032 191.139H172.418V236.261H219.032V191.139Z" fill="#E0E0E0"/>
<path d="M176.047 232.396L188.903 209.204L199.472 224.034L205.861 216.146L215.405 232.396H176.047Z" fill="#9685FD"/>
<path d="M200.575 208.099C202.448 208.099 203.967 206.581 203.967 204.707C203.967 202.834 202.448 201.315 200.575 201.315C198.702 201.315 197.184 202.834 197.184 204.707C197.184 206.581 198.702 208.099 200.575 208.099Z" fill="#9685FD"/>
<path d="M215.403 232.554C215.403 232.554 215.403 232.475 215.403 232.396C215.403 232.238 215.403 232.08 215.403 231.844C215.403 231.37 215.403 230.66 215.403 229.793C215.403 227.978 215.403 225.454 215.324 222.141C215.324 215.514 215.245 206.206 215.245 194.925L215.403 195.083C203.966 195.083 190.479 195.083 176.045 195.083C175.966 195.162 176.439 194.689 176.282 194.846V194.925V195.004V195.162V195.478V196.109V197.371C176.282 198.239 176.282 199.106 176.282 199.895C176.282 201.552 176.282 203.287 176.282 204.944C176.282 208.257 176.282 211.491 176.282 214.647C176.282 220.958 176.282 226.953 176.282 232.396L176.124 232.238C187.876 232.317 197.656 232.317 204.597 232.317C208.068 232.317 210.749 232.317 212.642 232.396C213.589 232.396 214.299 232.396 214.772 232.396C215.008 232.396 215.166 232.396 215.324 232.396C215.324 232.554 215.403 232.554 215.403 232.554C215.403 232.554 215.324 232.554 215.245 232.554C215.087 232.554 214.93 232.554 214.693 232.554C214.22 232.554 213.51 232.554 212.563 232.554C210.67 232.554 207.989 232.554 204.597 232.633C197.656 232.633 187.797 232.711 175.966 232.711H175.808V232.554C175.808 227.032 175.808 221.115 175.808 214.804C175.808 211.649 175.808 208.415 175.808 205.102C175.808 203.445 175.808 201.788 175.808 200.053C175.808 199.185 175.808 198.396 175.808 197.529V196.266V195.635V195.32V195.162V195.083V195.004C175.572 195.162 176.045 194.689 176.045 194.768C190.479 194.768 204.045 194.768 215.403 194.768H215.561V194.925C215.482 206.206 215.482 215.672 215.482 222.299C215.482 225.533 215.482 228.136 215.403 229.95C215.403 230.818 215.403 231.449 215.403 231.923C215.403 232.159 215.403 232.317 215.403 232.396C215.403 232.475 215.403 232.554 215.403 232.554Z" fill="#455A64"/>
<path d="M250.502 182.462H229.285V185.144H250.502V182.462Z" fill="#455A64"/>
<path d="M275.899 191.139H229.285V236.261H275.899V191.139Z" fill="#E0E0E0"/>
<path d="M232.834 232.396L245.769 209.204L256.338 224.034L262.727 216.146L272.271 232.396H232.834Z" fill="#9685FD"/>
<path d="M257.442 208.099C259.315 208.099 260.834 206.581 260.834 204.707C260.834 202.834 259.315 201.315 257.442 201.315C255.569 201.315 254.051 202.834 254.051 204.707C254.051 206.581 255.569 208.099 257.442 208.099Z" fill="#9685FD"/>
<path d="M272.27 232.554C272.27 232.554 272.27 232.475 272.27 232.396C272.27 232.238 272.27 232.08 272.27 231.844C272.27 231.37 272.27 230.66 272.27 229.793C272.27 227.978 272.27 225.454 272.191 222.141C272.191 215.514 272.112 206.206 272.112 194.925L272.27 195.083C260.833 195.083 247.346 195.083 232.912 195.083C232.833 195.162 233.307 194.689 233.149 194.846V194.925V195.004V195.162V195.478V196.109V197.371C233.149 198.239 233.149 199.106 233.149 199.895C233.149 201.552 233.149 203.287 233.149 204.944C233.149 208.257 233.149 211.491 233.149 214.647C233.149 220.958 233.149 226.953 233.149 232.396L232.991 232.238C244.743 232.317 254.524 232.317 261.464 232.317C264.935 232.317 267.617 232.317 269.509 232.396C270.456 232.396 271.166 232.396 271.639 232.396C271.876 232.396 272.033 232.396 272.191 232.396C272.191 232.554 272.27 232.554 272.27 232.554C272.27 232.554 272.191 232.554 272.112 232.554C271.955 232.554 271.797 232.554 271.56 232.554C271.087 232.554 270.377 232.554 269.431 232.554C267.538 232.554 264.856 232.554 261.464 232.633C254.524 232.633 244.664 232.711 232.833 232.711H232.676V232.554C232.676 227.032 232.676 221.115 232.676 214.804C232.676 211.649 232.676 208.415 232.676 205.102C232.676 203.445 232.676 201.788 232.676 200.053C232.676 199.185 232.676 198.396 232.676 197.529V196.266V195.635V195.32V195.162V195.083V195.004C232.439 195.162 232.912 194.689 232.912 194.768C247.346 194.768 260.912 194.768 272.27 194.768H272.428V194.925C272.349 206.206 272.349 215.672 272.349 222.299C272.349 225.533 272.349 228.136 272.27 229.95C272.27 230.818 272.27 231.449 272.27 231.923C272.27 232.159 272.27 232.317 272.27 232.396C272.27 232.475 272.27 232.554 272.27 232.554Z" fill="#455A64"/>
<path d="M309.106 182.462H287.889V185.144H309.106V182.462Z" fill="#455A64"/>
<path d="M334.503 191.139H287.889V236.261H334.503V191.139Z" fill="#E0E0E0"/>
<path d="M291.518 232.396L304.453 209.204L314.943 224.034L321.411 216.146L330.954 232.396H291.518Z" fill="#9685FD"/>
<path d="M316.126 208.099C317.999 208.099 319.517 206.581 319.517 204.707C319.517 202.834 317.999 201.315 316.126 201.315C314.253 201.315 312.734 202.834 312.734 204.707C312.734 206.581 314.253 208.099 316.126 208.099Z" fill="#9685FD"/>
<path d="M330.954 232.554C330.954 232.554 330.954 232.475 330.954 232.396C330.954 232.238 330.954 232.08 330.954 231.844C330.954 231.37 330.954 230.66 330.954 229.793C330.954 227.978 330.954 225.454 330.875 222.141C330.875 215.514 330.796 206.206 330.796 194.925L330.954 195.083C319.517 195.083 306.03 195.083 291.596 195.083C291.517 195.162 291.99 194.689 291.832 194.846V194.925V195.004V195.162V195.478V196.109V197.371C291.832 198.239 291.832 199.106 291.832 199.895C291.832 201.552 291.832 203.287 291.832 204.944C291.832 208.257 291.832 211.491 291.832 214.647C291.832 220.958 291.832 226.953 291.832 232.396L291.675 232.238C303.427 232.317 313.207 232.317 320.148 232.317C323.618 232.317 326.3 232.317 328.193 232.396C329.139 232.396 329.849 232.396 330.323 232.396C330.559 232.396 330.717 232.396 330.875 232.396C330.875 232.554 330.875 232.554 330.954 232.554C330.954 232.554 330.875 232.554 330.796 232.554C330.638 232.554 330.48 232.554 330.244 232.554C329.77 232.554 329.061 232.554 328.114 232.554C326.221 232.554 323.539 232.554 320.148 232.633C313.207 232.633 303.348 232.711 291.517 232.711H291.359V232.554C291.359 227.032 291.359 221.115 291.359 214.804C291.359 211.649 291.359 208.415 291.359 205.102C291.359 203.445 291.359 201.788 291.359 200.053C291.359 199.185 291.359 198.396 291.359 197.529V196.266V195.635V195.32V195.162V195.083V195.004C291.123 195.162 291.596 194.689 291.596 194.768C306.03 194.768 319.596 194.768 330.954 194.768H331.111V194.925C331.032 206.206 331.032 215.672 331.032 222.299C331.032 225.533 331.032 228.136 330.954 229.95C330.954 230.818 330.954 231.449 330.954 231.923C330.954 232.159 330.954 232.317 330.954 232.396C330.954 232.475 330.954 232.554 330.954 232.554Z" fill="#455A64"/>
<path d="M330.164 155.009C330.164 154.852 332.451 154.773 335.291 154.773C334.818 155.246 335.133 154.931 335.054 155.009V154.931V154.773V154.536C335.054 154.378 335.054 154.221 335.054 154.063C335.054 153.747 335.054 153.432 335.054 153.116C335.054 152.564 335.054 152.012 335.133 151.46C335.212 150.513 335.212 149.961 335.291 149.961C335.37 149.961 335.37 150.513 335.449 151.46C335.449 152.012 335.449 152.564 335.527 153.116C335.527 153.432 335.527 153.747 335.527 154.063C335.527 154.221 335.527 154.378 335.527 154.536V154.773V154.931V155.009C335.449 155.088 335.764 154.773 335.291 155.246C332.451 155.246 330.164 155.088 330.164 155.009Z" fill="#455A64"/>
<path d="M312.733 155.246C315.957 155.246 318.57 155.14 318.57 155.009C318.57 154.879 315.957 154.773 312.733 154.773C309.51 154.773 306.896 154.879 306.896 155.009C306.896 155.14 309.51 155.246 312.733 155.246Z" fill="#455A64"/>
<path d="M290.175 149.882C290.333 149.882 290.412 152.17 290.412 155.009C289.939 154.536 290.254 154.852 290.175 154.773H290.254H290.412H290.649C290.806 154.773 290.964 154.773 291.122 154.773C291.437 154.773 291.753 154.773 292.068 154.773C292.62 154.773 293.172 154.773 293.725 154.852C294.671 154.93 295.223 154.93 295.223 155.009C295.223 155.088 294.671 155.088 293.725 155.167C293.172 155.167 292.62 155.167 292.068 155.246C291.753 155.246 291.437 155.246 291.122 155.246C290.964 155.246 290.806 155.246 290.649 155.246H290.412H290.254C290.175 155.167 290.491 155.483 290.018 155.009C289.939 152.17 290.096 149.882 290.175 149.882Z" fill="#455A64"/>
<path d="M290.176 138.286C290.307 138.286 290.413 135.672 290.413 132.448C290.413 129.224 290.307 126.611 290.176 126.611C290.045 126.611 289.939 129.224 289.939 132.448C289.939 135.672 290.045 138.286 290.176 138.286Z" fill="#455A64"/>
<path d="M295.303 109.887C295.303 110.044 293.015 110.123 290.176 110.123C290.649 109.65 290.334 109.965 290.412 109.887V109.965V110.123V110.36C290.412 110.518 290.412 110.675 290.412 110.833C290.412 111.149 290.412 111.464 290.412 111.78C290.412 112.332 290.412 112.884 290.334 113.436C290.255 114.383 290.255 114.935 290.176 114.935C290.097 114.935 290.097 114.383 290.018 113.436C290.018 112.884 290.018 112.332 289.939 111.78C289.939 111.464 289.939 111.149 289.939 110.833C289.939 110.675 289.939 110.518 289.939 110.36V110.123V109.965V109.887C290.018 109.808 289.703 110.123 290.176 109.65C293.015 109.65 295.303 109.808 295.303 109.887Z" fill="#455A64"/>
<path d="M312.733 110.124C315.957 110.124 318.57 110.018 318.57 109.887C318.57 109.756 315.957 109.65 312.733 109.65C309.51 109.65 306.896 109.756 306.896 109.887C306.896 110.018 309.51 110.124 312.733 110.124Z" fill="#455A64"/>
<path d="M335.292 115.015C335.134 115.015 335.055 112.727 335.055 109.887C335.529 110.36 335.213 110.045 335.292 110.124H335.213H335.055H334.819C334.661 110.124 334.503 110.124 334.346 110.124C334.03 110.124 333.715 110.124 333.399 110.124C332.847 110.124 332.295 110.124 331.743 110.045C330.796 109.966 330.244 109.966 330.244 109.887C330.244 109.808 330.796 109.808 331.743 109.729C332.295 109.729 332.847 109.729 333.399 109.65C333.715 109.65 334.03 109.65 334.346 109.65C334.503 109.65 334.661 109.65 334.819 109.65H335.055H335.213H335.292C335.371 109.729 335.055 109.414 335.529 109.887C335.529 112.727 335.371 115.015 335.292 115.015Z" fill="#455A64"/>
<path d="M335.291 138.286C335.422 138.286 335.528 135.672 335.528 132.448C335.528 129.224 335.422 126.611 335.291 126.611C335.161 126.611 335.055 129.224 335.055 132.448C335.055 135.672 335.161 138.286 335.291 138.286Z" fill="#455A64"/>
<path d="M312.339 162.425C324.666 162.425 334.66 162.319 334.66 162.188C334.66 162.057 324.666 161.951 312.339 161.951C300.011 161.951 290.018 162.057 290.018 162.188C290.018 162.319 300.011 162.425 312.339 162.425Z" fill="#455A64"/>
<path d="M312.339 168.42C324.666 168.42 334.66 168.314 334.66 168.183C334.66 168.053 324.666 167.947 312.339 167.947C300.011 167.947 290.018 168.053 290.018 168.183C290.018 168.314 300.011 168.42 312.339 168.42Z" fill="#455A64"/>
<path d="M311.234 101.131H290.018V103.813H311.234V101.131Z" fill="#455A64"/>
<path d="M126.358 159.111C138.99 159.111 149.231 148.869 149.231 136.235C149.231 123.6 138.99 113.358 126.358 113.358C113.725 113.358 103.484 123.6 103.484 136.235C103.484 148.869 113.725 159.111 126.358 159.111Z" fill="#E0E0E0"/>
<path d="M127.541 186.327C142.003 186.327 153.727 186.221 153.727 186.09C153.727 185.959 142.003 185.854 127.541 185.854C113.079 185.854 101.355 185.959 101.355 186.09C101.355 186.221 113.079 186.327 127.541 186.327Z" fill="#455A64"/>
<path d="M127.541 192.086C142.003 192.086 153.727 191.98 153.727 191.849C153.727 191.718 142.003 191.612 127.541 191.612C113.079 191.612 101.355 191.718 101.355 191.849C101.355 191.98 113.079 192.086 127.541 192.086Z" fill="#455A64"/>
<path d="M127.541 197.923C142.003 197.923 153.727 197.817 153.727 197.686C153.727 197.556 142.003 197.45 127.541 197.45C113.079 197.45 101.355 197.556 101.355 197.686C101.355 197.817 113.079 197.923 127.541 197.923Z" fill="#455A64"/>
<path d="M116.262 203.839C124.669 203.839 131.484 203.733 131.484 203.603C131.484 203.472 124.669 203.366 116.262 203.366C107.854 203.366 101.039 203.472 101.039 203.603C101.039 203.733 107.854 203.839 116.262 203.839Z" fill="#455A64"/>
<path d="M101.28 176.882H137.404V174.279H101.28V176.882Z" fill="#455A64"/>
<path d="M112.082 153.747C115.947 157.139 120.995 159.112 126.595 159.112C132.116 159.112 137.243 157.061 141.107 153.668C139.924 149.566 136.927 144.597 129.75 143.571C132.905 142.23 135.113 139.075 135.113 135.288C135.113 130.318 131.406 126.295 126.752 126.295C122.099 126.295 118.313 130.318 118.313 135.209C118.313 138.996 120.521 142.309 123.676 143.571C116.262 144.676 113.265 149.645 112.082 153.747Z" fill="#9685FD"/>
<path d="M121.626 212.675H101.355V215.12H121.626V212.675Z" fill="#9685FD"/>
<path d="M404.542 127.005C405.725 130.871 406.829 134.736 408.012 138.601C408.17 139.153 408.327 139.706 408.327 140.258C408.327 141.914 406.75 143.177 405.173 143.492C403.595 143.808 401.939 143.334 400.361 142.94C399.967 144.597 397.995 145.307 396.339 145.622C388.846 147.042 380.88 146.016 374.018 142.861C377.015 138.601 379.46 133.947 381.195 129.056C387.032 129.293 392.947 129.608 398.784 129.845C399.809 129.924 400.913 129.924 401.86 129.608C402.806 129.293 403.753 128.425 403.753 127.4" fill="#806BFF"/>
<path d="M384.35 149.566C384.586 148.304 384.034 142.861 384.034 142.861C384.034 142.861 379.065 142.309 378.75 137.418C378.434 132.527 378.75 121.168 378.75 121.168L387.82 116.75L397.758 124.323L396.259 148.935L385.533 158.559L384.35 149.566Z" fill="#FFBE9D"/>
<path d="M380.406 130.003C380.755 130.003 381.037 129.72 381.037 129.372C381.037 129.023 380.755 128.741 380.406 128.741C380.058 128.741 379.775 129.023 379.775 129.372C379.775 129.72 380.058 130.003 380.406 130.003Z" fill="#263238"/>
<path d="M379.144 128.741C379.223 128.82 379.696 128.425 380.406 128.425C381.115 128.346 381.589 128.741 381.668 128.662C381.668 128.583 381.589 128.504 381.431 128.346C381.194 128.188 380.879 128.031 380.406 128.11C380.011 128.11 379.617 128.346 379.459 128.504C379.144 128.504 379.065 128.662 379.144 128.741Z" fill="#263238"/>
<path d="M387.662 130.003C388.011 130.003 388.293 129.72 388.293 129.372C388.293 129.023 388.011 128.741 387.662 128.741C387.314 128.741 387.031 129.023 387.031 129.372C387.031 129.72 387.314 130.003 387.662 130.003Z" fill="#263238"/>
<path d="M386.637 128.741C386.716 128.82 387.189 128.425 387.899 128.425C388.609 128.346 389.082 128.741 389.161 128.662C389.161 128.583 389.082 128.504 388.924 128.346C388.687 128.188 388.372 128.031 387.899 128.11C387.504 128.11 387.11 128.346 386.952 128.504C386.716 128.504 386.637 128.662 386.637 128.741Z" fill="#263238"/>
<path d="M386.479 135.13C385.611 135.525 384.112 136.156 383.166 136.235C383.166 136.235 384.034 137.418 385.453 136.866C386.873 136.314 386.479 135.13 386.479 135.13Z" fill="#FAFAFA"/>
<path d="M384.035 142.861C384.035 142.861 387.348 142.861 390.582 140.652C390.582 140.652 389.083 144.281 384.193 144.044L384.035 142.861Z" fill="#EB996E"/>
<path d="M412.114 138.444C411.641 138.444 411.01 138.365 410.3 138.049C409.59 137.734 408.88 137.024 408.328 136.156C407.776 135.288 407.303 134.184 406.908 133C405.962 130.713 405.331 128.583 404.857 127.005C404.779 126.769 404.7 126.532 404.621 126.295C404.542 126.059 404.542 125.822 404.463 125.585C401.781 115.33 392.79 113.437 390.976 113.437C389.083 113.437 385.691 112.411 380.801 117.46C380.012 118.328 379.381 119.196 378.987 119.984C377.725 121.562 377.094 123.298 376.779 124.639C376.463 126.137 376.621 127.084 376.7 127.084C376.779 127.084 376.779 126.137 377.173 124.717C377.331 124.008 377.646 123.14 378.119 122.272C377.41 125.427 378.593 127.952 378.593 127.952L380.328 127.478L386.638 125.349C386.086 123.376 386.874 121.01 387.348 119.905L387.426 119.827C388.846 127.163 396.97 127.952 396.97 127.952L396.576 141.914C404.936 140.1 405.015 131.028 404.936 128.741C405.331 130.003 405.804 131.502 406.435 133C406.908 134.184 407.381 135.288 407.933 136.156C408.564 137.102 409.353 137.812 410.063 138.128C410.852 138.444 411.562 138.522 412.035 138.444C412.508 138.365 412.745 138.207 412.745 138.207C412.745 138.286 412.508 138.365 412.114 138.444Z" fill="#806BFF"/>
<path d="M384.192 134.42C384.192 134.42 383.797 134.341 383.087 134.263C382.93 134.263 382.772 134.263 382.693 134.105C382.614 133.947 382.693 133.789 382.772 133.553C382.93 133.079 383.087 132.606 383.245 132.133C383.561 131.107 383.876 130.239 384.034 129.529C384.192 128.898 384.349 128.425 384.271 128.425C384.271 128.425 384.034 128.819 383.876 129.451C383.64 130.082 383.324 131.028 383.009 131.975C382.851 132.448 382.693 132.922 382.535 133.395C382.457 133.631 382.378 133.868 382.456 134.105C382.535 134.263 382.614 134.341 382.772 134.341C382.851 134.341 383.009 134.341 383.087 134.341C383.797 134.499 384.192 134.499 384.192 134.42Z" fill="#263238"/>
<path d="M395.628 130.476C394.13 130.161 392.789 129.924 392.395 129.924C392.473 129.687 392.473 129.372 392.473 129.135C392.473 128.267 392.158 127.4 391.685 126.769C391.211 126.137 390.502 125.664 389.792 125.349C389.082 125.112 388.372 125.033 387.662 125.191C387.031 125.349 386.479 125.585 386.006 125.98C385.138 126.69 384.744 127.557 384.586 128.188C384.507 128.504 384.507 128.741 384.507 128.898C384.507 129.056 384.507 129.135 384.507 129.135C384.507 129.135 384.507 128.82 384.665 128.188C384.823 127.636 385.217 126.769 386.085 126.137C386.479 125.822 387.031 125.585 387.662 125.428C388.293 125.349 389.003 125.349 389.634 125.585C390.265 125.822 390.896 126.295 391.369 126.926C391.842 127.557 392.079 128.346 392.079 129.135C392.079 129.924 391.842 130.713 391.369 131.344C390.896 131.975 390.265 132.448 389.634 132.685C389.003 132.922 388.293 132.922 387.662 132.843C387.031 132.764 386.479 132.448 386.085 132.133C385.217 131.502 384.823 130.634 384.665 130.082C384.586 129.766 384.586 129.53 384.507 129.372C384.665 129.372 384.744 129.293 384.744 129.293C384.744 129.214 384.665 129.214 384.507 129.214C384.349 129.214 384.192 129.214 384.034 129.214C383.797 129.214 383.561 129.214 383.482 129.293C383.482 129.293 383.482 129.293 383.482 129.214C383.482 128.346 383.166 127.479 382.693 126.847C382.22 126.216 381.51 125.743 380.8 125.428C380.09 125.191 379.38 125.112 378.671 125.27C378.04 125.428 377.487 125.664 377.014 126.059C376.147 126.769 375.752 127.636 375.595 128.267C375.516 128.583 375.516 128.82 375.516 128.977C375.516 129.135 375.516 129.214 375.516 129.214C375.516 129.214 375.516 128.898 375.673 128.267C375.831 127.715 376.225 126.847 377.093 126.216C377.487 125.901 378.04 125.664 378.671 125.506C379.302 125.428 380.011 125.428 380.642 125.664C381.273 125.901 381.904 126.374 382.378 127.005C382.851 127.636 383.087 128.425 383.087 129.214C383.087 130.003 382.851 130.792 382.378 131.423C381.904 132.054 381.273 132.527 380.642 132.764C380.011 133.001 379.302 133.001 378.671 132.922C378.04 132.843 377.487 132.527 377.093 132.212C376.225 131.581 375.831 130.713 375.673 130.161C375.516 129.608 375.516 129.214 375.516 129.214C375.516 129.214 375.516 129.293 375.516 129.451C375.516 129.608 375.516 129.845 375.595 130.161C375.752 130.792 376.068 131.659 377.014 132.369C377.487 132.685 378.04 133.001 378.671 133.158C379.302 133.237 380.09 133.237 380.8 133.001C381.51 132.764 382.141 132.291 382.693 131.581C383.166 130.949 383.403 130.24 383.482 129.451C383.64 129.451 383.797 129.53 384.034 129.53C384.192 129.53 384.349 129.53 384.507 129.53C384.507 129.687 384.507 129.924 384.586 130.24C384.744 130.871 385.059 131.738 386.006 132.448C386.479 132.764 387.031 133.079 387.662 133.237C388.293 133.316 389.082 133.316 389.792 133.079C390.502 132.843 391.133 132.369 391.685 131.659C392 131.265 392.237 130.713 392.316 130.161C392.71 130.318 394.051 130.634 395.549 130.871C397.442 131.265 398.941 131.502 399.02 131.423C399.099 131.186 397.521 130.792 395.628 130.476Z" fill="#263238"/>
<path d="M398.311 134.263C398.311 133.474 398.311 132.606 398.547 131.817C398.863 131.028 399.494 130.397 400.282 130.318C401.229 130.239 402.096 131.028 402.254 131.896C402.412 132.843 401.86 133.789 401.071 134.263C400.282 134.736 399.178 134.736 398.311 134.341" fill="#FFBE9D"/>
<path d="M399.73 133.553C399.73 133.474 399.966 133.632 400.361 133.553C400.676 133.474 401.071 133.079 401.071 132.527C401.071 132.212 400.992 131.975 400.913 131.896C400.755 131.738 400.519 131.738 400.361 131.738C399.966 131.738 399.73 131.896 399.73 131.817C399.73 131.738 399.888 131.581 400.361 131.502C400.597 131.423 400.913 131.423 401.15 131.659C401.465 131.896 401.544 132.291 401.465 132.606C401.465 132.922 401.307 133.316 401.071 133.553C400.834 133.789 400.597 133.947 400.361 133.947C399.888 133.789 399.651 133.553 399.73 133.553Z" fill="#EB996E"/>
<path d="M418.818 320.984L412.902 316.961L420.395 305.759L429.071 311.597L428.677 312.306C426.784 315.541 418.818 328.399 416.846 330.056C414.559 331.949 418.818 320.984 418.818 320.984Z" fill="#5F45FB"/>
<path d="M422.549 320.841C426.022 315.722 428.751 311.513 428.643 311.44C428.535 311.366 425.631 315.456 422.157 320.575C418.683 325.694 415.955 329.903 416.063 329.976C416.171 330.05 419.075 325.96 422.549 320.841Z" fill="#263238"/>
<path d="M419.843 322.009C419.843 322.167 419.449 322.246 419.054 322.246C418.581 322.246 418.266 322.246 418.266 322.088C418.266 321.93 418.581 321.773 419.054 321.773C419.528 321.773 419.843 321.93 419.843 322.009Z" fill="#263238"/>
<path d="M419.763 323.035C419.763 323.193 419.369 323.193 418.817 323.114C418.344 323.114 417.949 323.035 417.949 322.877C417.949 322.719 418.344 322.641 418.896 322.641C419.448 322.719 419.842 322.877 419.763 323.035Z" fill="#263238"/>
<path d="M426.39 314.752C426.311 314.752 426.154 314.515 425.996 314.121C425.838 313.726 425.602 313.095 425.602 312.385C425.602 311.675 425.838 311.044 426.075 310.65C426.39 310.256 426.627 310.177 426.706 310.256C426.785 310.334 426.548 310.492 426.39 310.887C426.233 311.281 426.075 311.833 426.075 312.385C426.075 313.017 426.233 313.569 426.311 314.042C426.39 314.436 426.469 314.673 426.39 314.752Z" fill="#263238"/>
<path d="M418.74 321.299C418.661 321.22 418.898 320.984 419.213 320.747C419.529 320.511 419.765 320.353 419.844 320.511C419.923 320.589 419.765 320.905 419.45 321.142C419.134 321.378 418.819 321.378 418.74 321.299Z" fill="#263238"/>
<path d="M418.266 320.747C418.187 320.668 418.266 320.274 418.503 319.958C418.739 319.564 419.055 319.406 419.134 319.406C419.212 319.485 419.134 319.801 418.897 320.195C418.66 320.589 418.345 320.826 418.266 320.747Z" fill="#263238"/>
<path d="M348.779 330.214V323.035L362.188 322.956L362.267 333.448L361.399 333.527C357.692 333.763 342.548 334.394 340.024 333.684C337.422 332.817 348.779 330.214 348.779 330.214Z" fill="#5F45FB"/>
<path d="M351.067 333.211C357.253 333.211 362.267 333.105 362.267 332.974C362.267 332.844 357.253 332.738 351.067 332.738C344.882 332.738 339.867 332.844 339.867 332.974C339.867 333.105 344.882 333.211 351.067 333.211Z" fill="#263238"/>
<path d="M348.543 331.634C348.464 331.712 348.148 331.476 347.912 331.081C347.675 330.766 347.439 330.45 347.517 330.292C347.596 330.214 347.991 330.371 348.227 330.766C348.543 331.239 348.701 331.555 348.543 331.634Z" fill="#263238"/>
<path d="M347.676 332.107C347.518 332.186 347.282 331.791 347.045 331.397C346.808 331.002 346.651 330.608 346.73 330.529C346.808 330.45 347.203 330.687 347.439 331.16C347.755 331.633 347.834 332.107 347.676 332.107Z" fill="#263238"/>
<path d="M358.243 332.974C358.164 332.974 358.322 332.659 358.559 332.343C358.795 331.949 359.19 331.476 359.742 331.002C360.294 330.608 361.004 330.45 361.477 330.45C361.95 330.45 362.187 330.687 362.187 330.687C362.187 330.766 361.871 330.687 361.477 330.766C361.083 330.845 360.531 331.002 360.057 331.397C359.584 331.791 359.19 332.186 358.874 332.501C358.48 332.817 358.322 332.974 358.243 332.974Z" fill="#263238"/>
<path d="M348.542 330.292C348.621 330.213 348.937 330.213 349.252 330.371C349.568 330.529 349.883 330.608 349.804 330.766C349.804 330.923 349.41 330.923 349.095 330.844C348.7 330.687 348.464 330.45 348.542 330.292Z" fill="#263238"/>
<path d="M348.701 329.582C348.701 329.425 349.096 329.346 349.49 329.346C349.884 329.346 350.279 329.425 350.279 329.582C350.279 329.74 349.963 329.819 349.49 329.819C349.096 329.819 348.701 329.74 348.701 329.582Z" fill="#263238"/>
<path d="M382.693 164.397L368.18 159.506C368.18 159.506 361.713 178.044 359.741 178.202C348.856 179.227 337.104 175.598 333.082 174.179C332.687 173.705 332.214 173.153 331.662 172.443C331.189 171.891 330.873 171.181 330.637 170.471C330.321 169.603 330.006 168.499 330.085 167.789C330.085 166.921 329.059 166.527 328.586 167.079C328.113 167.71 327.955 169.998 329.059 172.522C330.164 175.046 326.299 173.074 324.958 172.364C323.538 171.654 319.121 169.682 318.569 169.919C317.78 170.313 318.017 171.26 319.437 171.891C320.856 172.601 324.958 174.888 324.564 175.598C324.169 176.308 317.071 172.601 317.071 172.601C317.071 172.601 315.651 171.575 315.178 172.364C314.31 173.863 322.118 177.176 322.828 177.492C323.38 177.728 322.907 178.517 322.355 178.281C321.803 178.044 315.335 174.415 314.468 175.914C313.758 177.097 320.856 178.754 321.803 180.253C322.749 181.751 316.518 178.438 315.887 179.543C315.651 179.937 315.493 180.332 319.358 181.673C321.251 182.383 324.721 183.171 327.876 183.881C327.876 183.881 366.13 200.999 374.411 184.512C383.166 167.158 382.693 164.397 382.693 164.397Z" fill="#FFBE9D"/>
<path d="M373.782 205.102C373.782 205.102 364.475 266.79 365.816 269.787C367.157 272.706 414.875 323.429 414.875 323.429L426.075 304.26C426.075 304.26 388.373 262.214 388.689 261.11C389.004 260.006 402.019 199.974 402.019 199.974L373.782 205.102Z" fill="#455A64"/>
<path d="M375.832 281.384L383.64 264.108L391.528 246.911L378.277 269.787L375.832 281.384Z" fill="#263238"/>
<path d="M380.486 266.001C380.486 266.001 380.486 266.238 380.565 266.711C380.565 267.184 380.565 267.815 380.644 268.683V268.604C383.641 271.996 390.267 279.648 397.917 288.641C403.123 294.715 407.776 300.237 411.247 304.339C412.903 306.311 414.244 307.968 415.269 309.151C415.743 309.703 416.058 310.098 416.374 310.492C416.61 310.808 416.768 310.966 416.689 310.966C416.689 310.966 416.531 310.808 416.295 310.571C415.979 310.256 415.664 309.861 415.191 309.309C414.165 308.126 412.824 306.548 411.089 304.655C407.619 300.632 402.886 295.11 397.681 289.035C390.03 280.043 383.484 272.312 380.644 268.841C380.644 268.052 380.644 267.342 380.723 266.869C380.486 266.238 380.486 266.001 380.486 266.001Z" fill="#263238"/>
<path d="M416.7 309.583C420.009 304.563 422.603 300.436 422.494 300.364C422.385 300.292 419.614 304.303 416.305 309.322C412.997 314.342 410.403 318.469 410.512 318.541C410.621 318.613 413.392 314.602 416.7 309.583Z" fill="#263238"/>
<path d="M370.469 228.294C370.548 227.663 377.962 210.939 377.962 210.939L374.334 205.89L373.703 205.733L370.469 228.294Z" fill="#263238"/>
<path d="M381.038 204.549L373.703 205.811L377.962 211.018C371.1 226.479 356.982 259.296 355.326 269.787C353.038 283.75 344.599 327.531 345.467 328.162C346.334 328.794 365.895 328.162 365.895 328.162L378.357 269.787L405.962 221.983C409.433 216.067 410.379 208.967 408.802 202.262L408.25 199.974" fill="#455A64"/>
<path d="M359.033 321.694C359.033 321.694 359.033 321.615 359.033 321.378C359.033 321.142 359.112 320.826 359.191 320.432C359.349 319.564 359.506 318.381 359.822 316.803C360.374 313.569 361.163 308.993 362.188 303.393C363.213 297.713 364.397 291.008 365.737 283.513C366.447 279.806 367.157 275.862 367.867 271.76C368.025 270.734 368.261 269.709 368.498 268.683C368.577 268.131 368.656 267.658 368.813 267.105C368.892 266.869 368.892 266.553 368.971 266.316L369.287 265.528C370.075 263.556 370.943 261.583 371.89 259.532C378.988 243.519 385.692 229.083 390.504 218.591C392.949 213.384 394.842 209.204 396.261 206.206C396.971 204.786 397.444 203.682 397.839 202.893C397.997 202.498 398.154 202.262 398.233 202.025C398.312 201.867 398.391 201.709 398.391 201.709C398.391 201.709 398.391 201.788 398.312 202.025C398.233 202.262 398.075 202.577 397.918 202.893C397.602 203.682 397.05 204.865 396.419 206.285C395.078 209.204 393.185 213.463 390.819 218.67C386.087 229.162 379.461 243.598 372.363 259.611C371.495 261.583 370.628 263.634 369.839 265.528L369.523 266.238C369.444 266.474 369.366 266.711 369.366 267.026C369.208 267.5 369.129 268.052 369.05 268.604C368.813 269.63 368.656 270.655 368.419 271.681C367.63 275.783 366.921 279.648 366.211 283.435C364.87 290.929 363.608 297.634 362.582 303.314C361.557 308.915 360.69 313.49 360.137 316.724C359.822 318.302 359.585 319.485 359.428 320.353C359.349 320.747 359.27 321.063 359.27 321.299C359.033 321.615 359.033 321.694 359.033 321.694Z" fill="#263238"/>
<path d="M366.994 322.546C366.996 322.416 362.303 322.225 356.51 322.121C350.718 322.017 346.02 322.038 346.018 322.169C346.016 322.3 350.709 322.49 356.502 322.594C362.294 322.698 366.992 322.677 366.994 322.546Z" fill="#263238"/>
<path d="M373.703 205.733L374.019 206.443L409.354 203.603L408.092 200.053L373.703 205.733Z" fill="#263238"/>
<path d="M388.293 148.068L385.927 157.613L385.848 150.75L386.006 149.251L386.242 148.068L383.087 147.042L381.431 149.566H380.958C380.958 149.566 368.18 148.304 363.764 165.107L359.662 175.046L371.966 181.199V181.988L372.755 205.812L408.406 200.053C408.563 194.689 403.121 184.986 404.304 180.174L408.406 163.608L403.042 148.146L399.335 148.225L397.206 145.78L388.293 148.068Z" fill="#263238"/>
<path d="M372.282 181.121C372.282 181.121 371.966 181.042 371.493 180.726C371.02 180.411 370.389 179.858 369.837 178.991C369.285 178.123 368.89 176.94 368.969 175.599C369.048 174.258 369.442 172.759 370.389 171.497C371.099 170.55 371.966 169.761 372.913 169.209L372.834 169.367C373.149 167.158 373.386 165.265 373.623 164.002C373.859 162.661 373.938 161.873 374.017 161.873C374.096 161.873 374.017 162.661 373.859 164.002C373.701 165.344 373.544 167.237 373.228 169.446V169.524L373.149 169.603C372.282 170.077 371.414 170.787 370.783 171.733C369.916 172.916 369.521 174.336 369.442 175.599C369.285 176.861 369.679 178.044 370.152 178.833C370.625 179.701 371.256 180.174 371.651 180.568C372.045 180.963 372.282 181.121 372.282 181.121Z" fill="#455A64"/>
<path d="M373.645 165.036C373.762 164.979 373.594 164.393 373.268 163.728C372.943 163.063 372.584 162.57 372.466 162.627C372.349 162.685 372.518 163.271 372.843 163.936C373.169 164.601 373.528 165.094 373.645 165.036Z" fill="#455A64"/>
<path d="M337.183 158.323L449.341 179.858C457.307 181.357 462.355 188.693 461.488 197.055C461.488 197.134 461.409 197.292 461.409 197.371C459.91 205.654 451.786 211.018 443.504 209.361L333.634 187.195L309.42 167.789L337.183 158.323Z" fill="#9381FF"/>
<path d="M337.183 158.323C337.183 158.323 343.335 160.61 342.073 166.527C340.812 172.364 334.896 172.128 334.896 172.128C334.896 172.128 340.654 173.39 339.076 181.673C338.051 186.958 333.634 187.273 333.634 187.273L309.42 167.868L337.183 158.323Z" fill="#E0E0E0"/>
<path d="M314.626 172.049C316.992 170.865 317.86 167.71 316.992 165.265L309.342 167.868L314.626 172.049Z" fill="#455A64"/>
<path d="M447.842 195.004C447.842 195.004 447.764 195.004 447.527 195.004C447.29 195.004 447.054 194.925 446.659 194.846C445.871 194.689 444.766 194.531 443.347 194.215C440.507 193.663 436.327 192.874 431.2 191.928C420.947 189.956 406.828 187.116 391.212 183.881C375.673 180.647 361.555 177.728 351.302 175.599C346.254 174.494 342.074 173.705 339.234 173.074C337.814 172.759 336.71 172.522 335.921 172.364C335.527 172.285 335.29 172.206 335.054 172.206C334.896 172.128 334.738 172.128 334.738 172.128C334.738 172.128 334.817 172.128 335.054 172.128C335.29 172.128 335.527 172.206 335.921 172.285C336.71 172.443 337.814 172.68 339.234 172.916C342.152 173.469 346.254 174.336 351.381 175.283C361.634 177.413 375.752 180.253 391.29 183.487C406.907 186.721 421.026 189.561 431.2 191.612C436.327 192.638 440.428 193.427 443.347 194.058C444.766 194.373 445.871 194.531 446.659 194.689C447.054 194.768 447.29 194.846 447.527 194.846C447.764 195.004 447.842 195.004 447.842 195.004Z" fill="#455A64"/>
<path d="M443.506 209.361C451.788 211.018 459.833 205.654 461.41 197.371C461.41 197.292 461.489 197.134 461.489 197.055C462.435 188.693 457.388 181.436 449.343 179.858L443.506 209.361Z" fill="#455A64"/>
<path d="M398.942 162.819C398.942 162.819 392.159 184.355 390.187 184.828C379.539 187.51 367.471 185.775 363.212 185.065C362.739 184.67 362.187 184.197 361.556 183.566C361.004 183.093 360.609 182.462 360.215 181.83C359.821 181.042 359.269 179.937 359.19 179.227C359.111 178.359 358.007 178.123 357.612 178.833C357.218 179.543 357.455 181.83 358.953 184.118C358.953 184.118 350.435 189.561 348.542 189.482C346.649 189.403 341.286 189.325 341.917 190.035C342.469 190.744 348.542 191.77 348.542 191.77L359.584 195.556C359.584 195.556 400.125 206.443 405.646 188.851C409.038 178.044 411.404 171.733 411.956 169.13L398.942 162.819Z" fill="#FFBE9D"/>
<path d="M403.202 148.225C403.202 148.225 412.114 149.803 412.43 164.397C412.745 178.991 406.83 190.034 406.83 190.034L391.213 181.83C394.762 174.731 397.444 167.316 399.1 159.664L403.202 148.225Z" fill="#263238"/>
<path d="M398.627 160.453C398.627 160.453 398.627 160.768 398.548 161.32C398.469 161.872 398.311 162.74 398.075 163.687C397.68 165.738 396.892 168.499 395.866 171.418C394.841 174.415 393.658 177.018 392.79 178.833C392.317 179.779 391.923 180.489 391.686 181.042C391.371 181.515 391.213 181.83 391.213 181.83C391.213 181.83 391.292 181.515 391.528 180.963C391.765 180.332 392.159 179.622 392.554 178.754C393.421 176.861 394.447 174.257 395.472 171.26C396.497 168.262 397.286 165.58 397.759 163.608C397.996 162.661 398.154 161.872 398.311 161.241C398.469 160.768 398.548 160.453 398.627 160.453Z" fill="#455A64"/>
</g>
<defs>
<clipPath id="clip0">
<rect width="476" height="334" fill="white"/>
</clipPath>
</defs>
</svg>

